<svg width="524" height="563" viewBox="0 0 524 563" fill="none" xmlns="http://www.w3.org/2000/svg">
<mask id="mask0_1_35" style="mask-type:alpha" maskUnits="userSpaceOnUse" x="0" y="0" width="524" height="563">
<path d="M371.821 99.5C367.821 90.7 349.154 45.1667 340.321 23.5C365.654 15.6667 418.121 0 425.321 0C434.321 0 464.321 23.5 475.321 37C486.321 50.5 514.321 87.5 520.821 99.5C527.321 111.5 517.821 212 514.321 231C510.821 250 454.821 337.5 446.321 352C437.821 366.5 327.821 455 307.321 461.5C286.821 468 119.321 562 103.821 562.5C91.421 562.9 67.321 479.833 45.821 472L6.32099 444.5C4.98765 429.667 1.92099 395.1 0.320988 375.5C-1.67901 351 6.32099 304 6.32099 302C6.32099 300.4 18.6543 264.333 24.821 246.5L45.821 222L68.821 259L71.821 262.5L77.321 291.5C99.321 308.833 144.421 343.3 148.821 342.5C153.221 341.7 209.654 338.833 237.321 337.5L323.321 314.5L404.321 184.5C395.154 159.833 375.821 108.3 371.821 99.5Z" fill="#D9D9D9"/>
</mask>
<g mask="url(#mask0_1_35)">
<path d="M42.2059 291.782C67.2132 237.912 113.532 185.523 168.107 144.387C222.705 103.235 285.332 73.5034 343.141 64.5597C400.95 55.616 443.529 69.0712 465.412 98.3908C487.287 127.699 488.371 172.754 463.363 226.625C438.356 280.496 392.037 332.885 337.462 374.02C282.864 415.172 220.238 444.904 162.429 453.848C104.619 462.791 62.0406 449.336 40.1569 420.017C18.2821 390.709 17.1985 345.653 42.2059 291.782Z" stroke="#1B1B1D" stroke-width="3"/>
<path d="M42.2054 321.782C67.2128 267.912 113.531 215.523 168.107 174.387C222.704 133.235 285.331 103.503 343.14 94.5597C400.949 85.616 443.528 99.0712 465.412 128.391C487.287 157.699 488.37 202.754 463.363 256.625C438.356 310.496 392.037 362.885 337.461 404.02C282.864 445.172 220.237 474.904 162.428 483.848C104.619 492.791 62.0401 479.336 40.1565 450.017C18.2816 420.709 17.198 375.653 42.2054 321.782Z" stroke="#1B1B1D" stroke-width="3"/>
</g>
</svg>
