<svg width="25" height="20" viewBox="0 0 25 20" fill="none" xmlns="http://www.w3.org/2000/svg">
<path d="M22.0412 4.9725C22.0575 5.19125 22.0575 5.40875 22.0575 5.62625C22.0575 12.2825 16.9912 19.9525 7.7325 19.9525C4.88 19.9525 2.23 19.1263 0 17.6913C0.405 17.7375 0.795 17.7537 1.21625 17.7537C3.57 17.7537 5.73625 16.9587 7.4675 15.6025C5.25375 15.5562 3.39875 14.1062 2.75875 12.1112C3.07 12.1575 3.3825 12.1888 3.71 12.1888C4.16125 12.1888 4.615 12.1263 5.03625 12.0175C2.7275 11.55 0.99875 9.52375 0.99875 7.07625V7.01375C1.67 7.3875 2.44875 7.62125 3.27375 7.6525C1.9175 6.75 1.02875 5.20625 1.02875 3.46C1.02875 2.525 1.2775 1.6675 1.71375 0.92C4.1925 3.97375 7.91875 5.97 12.0963 6.18875C12.0188 5.81375 11.9712 5.425 11.9712 5.035C11.9712 2.26 14.2162 0 17.0062 0C18.4562 0 19.765 0.6075 20.685 1.59C21.8225 1.37125 22.9125 0.95 23.88 0.37375C23.5063 1.5425 22.71 2.525 21.6663 3.14875C22.68 3.03875 23.6625 2.75875 24.565 2.36875C23.88 3.36625 23.0237 4.255 22.0412 4.9725Z" fill="#64646A"/>
</svg>
