<svg width="150" height="148" viewBox="0 0 150 148" fill="none" xmlns="http://www.w3.org/2000/svg">
<path d="M125.625 77.2511C124.944 76.472 124.367 75.622 123.892 74.7245C123.658 98.846 103.965 118.399 79.7891 118.399C55.4681 118.399 35.6811 98.6122 35.6811 74.2912C35.6811 49.9702 55.4681 30.1833 79.7891 30.1833C100.711 30.1833 118.278 44.8271 122.779 64.4027L126.773 34.7092L126.863 34.0416C115.489 20.7585 98.6066 12.3252 79.7891 12.3252C65.1083 12.3252 51.6058 17.4603 40.9772 26.0246V26.6657V27.2334V39.8104V40.3096C40.9772 48.7104 36.6231 56.3802 29.7335 60.7627V109.924V110.771C41.0142 126.208 59.2485 136.256 79.7891 136.256C101.373 136.256 120.412 125.161 131.51 108.377V107.469V81.1364C129.259 80.4038 127.218 79.0731 125.625 77.2511Z" fill="#64646A"/>
<path d="M79.7891 37.6796C59.6013 37.6796 43.177 54.1034 43.177 74.2917C43.177 94.4799 59.6008 110.904 79.7891 110.904C99.9774 110.904 116.401 94.4799 116.401 74.2917C116.401 54.1034 99.9769 37.6796 79.7891 37.6796Z" fill="#64646A"/>
<path d="M149.833 5.77628C149.833 2.58606 147.247 0 144.057 0C141.164 0 138.718 2.13931 138.332 5.00621L129.892 67.7458C129.67 69.3974 130.172 71.0639 131.268 72.3182C132.365 73.5725 133.95 74.2916 135.617 74.2916H139.006V141.588C139.006 144.624 141.467 147.085 144.503 147.085C147.538 147.085 149.999 144.624 149.999 141.588L149.833 5.77628Z" fill="#64646A"/>
<path d="M33.4814 6.99608C33.4814 4.92574 31.8038 3.24817 29.7334 3.24817C27.6631 3.24817 25.9855 4.92574 25.9855 6.99608V27.734H20.4886V6.99608C20.4886 4.92574 18.811 3.24817 16.7407 3.24817C14.6703 3.24817 12.9928 4.92574 12.9928 6.99608V27.734H7.49583V6.99608C7.49583 4.92574 5.81826 3.24817 3.74791 3.24817C1.67757 3.24817 0 4.92574 0 6.99608V40.8103C0 48.1157 4.70588 54.3392 11.2437 56.6195V141.588C11.2437 144.623 13.7049 147.085 16.7407 147.085C19.7765 147.085 22.2376 144.623 22.2376 141.588V56.6195C28.7755 54.3392 33.4814 48.1157 33.4814 40.8103V6.99608Z" fill="#64646A"/>
</svg>
