<svg width="18" height="18" viewBox="0 0 18 18" fill="none" xmlns="http://www.w3.org/2000/svg">
<path d="M18 16L12.846 10.846C13.7988 9.39788 14.1805 7.64774 13.917 5.93442C13.6536 4.22111 12.7638 2.66648 11.4199 1.57154C10.076 0.476593 8.37369 -0.0807732 6.64247 0.00734836C4.91125 0.09547 3.27431 0.822811 2.04857 2.04855C0.822834 3.27429 0.0954928 4.91123 0.00737125 6.64245C-0.0807504 8.37366 0.476616 10.076 1.57156 11.4199C2.6665 12.7637 4.22113 13.6535 5.93445 13.917C7.64777 14.1804 9.3979 13.7988 10.846 12.846L16 18L18 16ZM2 6.99998C2 4.24298 4.243 1.99998 7 1.99998C9.757 1.99998 12 4.24298 12 6.99998C12 9.75698 9.757 12 7 12C4.243 12 2 9.75698 2 6.99998Z" fill="white"/>
</svg>
